<?xml version="1.0" standalone="no"?><!DOCTYPE svg PUBLIC "-//W3C//DTD SVG 1.1//EN" "http://www.w3.org/Graphics/SVG/1.1/DTD/svg11.dtd"><svg t="1777994706932" class="icon" viewBox="0 0 1024 1024" version="1.1" xmlns="http://www.w3.org/2000/svg" p-id="4923" xmlns:xlink="http://www.w3.org/1999/xlink" width="200" height="200"><path d="M881.778 657.98c0-68.337-26.145-133.639-70.123-193.55a470.111 470.111 0 0 0-48.029-55.688c-20.472 26.892-39.94 45.9-54.607 57.14-21.163 16.217-51.004-2.979-45.02-28.96 29.174-126.695-13.153-221.018-103.145-290.71-25.14-19.47-52.205-35.411-79.258-48.001a473.815 473.815 0 0 0-2.394-1.106c-16.151 106.059-65.249 165.267-176.6 252.088l-2.796 2.18c-119.867 93.455-157.583 147.694-157.583 274.404 0 122.462 81.91 221.529 220.368 285.557-44.796-72.4-58.544-141.916-44.441-207.535 12.332-57.38 44.912-107.523 91.078-150.635 20.48-19.125 42.326-35.608 64.193-49.49 13.244-8.407 23.729-14.168 30.108-17.265 26.254-12.741 52.38 17.593 35.887 41.667-0.309 0.45-1.599 2.886-3.141 7.127-15.213 41.82-0.4 98.715 75.64 171.575 57.794 59.054 67.264 131.656 30.78 213.352 161.084-77.032 239.084-164.864 239.084-262.152z m-146.65-307.502c9.156-14.035 28.4-17.152 41.519-6.725 5.478 4.354 14.5 12.254 25.888 23.46a526.482 526.482 0 0 1 54.981 63.553c50.568 68.893 81.151 145.276 81.151 227.213 0 134.273-108.817 245.46-319.848 335.303l-11.142 2.273h-24.496c-22.932 0-36.438-25.743-23.403-44.611 60.16-87.083 62.44-152.302 12.13-203.728-65.907-63.134-95.145-122.631-97.6-174.759a369.167 369.167 0 0 0-26.253 22.285c-38.344 35.81-64.69 76.356-74.288 121.01-14.788 68.815 10.404 145.723 87.768 232.42 16.359 18.332 3.347 47.383-21.223 47.383h-13.645l-8.995-1.459C214.667 926.428 85.333 797.4 85.333 625.776c0-148.264 47.176-216.105 179.494-319.268l2.794-2.178c112.552-87.757 150.58-138.492 159.13-249.624 1.4-18.213 19.36-30.402 36.805-24.98 8.85 2.751 23.496 8.274 42.045 16.906 30.677 14.279 61.343 32.34 90.085 54.6 83.608 64.748 133.624 150.217 134.379 256.804 1.7-2.474 3.388-4.994 5.063-7.559z" fill="#d4237a" p-id="4924"></path></svg>